# Blender v2.79 (sub 0) OBJ File: 'terrain8and10.blend'
# www.blender.org
mtllib water.mtl
o Cube.001_Cube
v 43.988281 -11.866610 1.606236
v 39.906773 -3.375006 1.606236
v 43.988281 -11.866610 -6.244567
v 39.906773 -3.375006 -6.244567
v 55.127792 -11.866610 1.606236
v 59.209301 -3.375006 1.606236
v 55.127792 -11.866610 -6.244567
v 59.209301 -3.375006 -6.244567
vn -0.9013 -0.4332 0.0000
vn 0.0000 0.0000 -1.0000
vn 0.9013 -0.4332 0.0000
vn 0.0000 0.0000 1.0000
vn 0.0000 -1.0000 0.0000
vn 0.0000 1.0000 0.0000
usemtl None
s off
f 1//1 2//1 4//1 3//1
f 3//2 4//2 8//2 7//2
f 7//3 8//3 6//3 5//3
f 5//4 6//4 2//4 1//4
f 3//5 7//5 5//5 1//5
f 8//6 4//6 2//6 6//6
